<?xml version="1.0" standalone="no"?>
<!DOCTYPE svg PUBLIC "-//W3C//DTD SVG 20010904//EN"
 "http://www.w3.org/TR/2001/REC-SVG-20010904/DTD/svg10.dtd">
<svg version="1.0" xmlns="http://www.w3.org/2000/svg"
 width="720.000000pt" height="720.000000pt" viewBox="0 0 720.000000 720.000000"
 preserveAspectRatio="xMidYMid meet">
<metadata>
Created by potrace 1.16, written by Peter Selinger 2001-2019
</metadata>
<g transform="translate(0.000000,720.000000) scale(0.100000,-0.100000)"
fill="#000000" stroke="none">
<path d="M2490 5799 c-21 -23 -48 -69 -60 -100 -20 -55 -20 -60 -5 -89 15 -29
18 -31 38 -17 42 28 79 101 84 170 7 83 -6 92 -57 36z"/>
<path d="M4652 5773 c6 -77 33 -140 75 -173 26 -20 28 -20 40 -4 30 41 -2 145
-65 212 -46 49 -55 43 -50 -35z"/>
<path d="M2763 5775 c-64 -18 -119 -51 -161 -99 -48 -55 -44 -61 48 -56 63 3
287 129 290 163 0 12 -122 7 -177 -8z"/>
<path d="M4262 5781 c16 -43 219 -157 288 -162 66 -4 80 0 73 19 -18 52 -110
117 -195 137 -69 16 -172 20 -166 6z"/>
<path d="M2310 5719 c0 -7 -6 -17 -14 -23 -26 -21 -67 -109 -73 -155 -4 -37
-1 -51 15 -71 24 -30 37 -22 75 48 33 61 42 116 28 170 -11 38 -31 58 -31 31z"/>
<path d="M4859 5688 c-9 -32 -9 -57 -1 -96 11 -52 56 -132 79 -139 14 -5 43
47 43 76 0 38 -82 200 -102 201 -4 0 -12 -19 -19 -42z"/>
<path d="M2080 5524 c-45 -87 -53 -171 -19 -203 22 -21 24 -21 41 -3 20 20 58
116 58 146 0 25 -32 126 -39 126 -4 0 -22 -29 -41 -66z"/>
<path d="M5059 5557 c-30 -70 -12 -182 39 -240 15 -16 17 -16 39 5 34 32 31
92 -11 182 -18 40 -38 76 -44 79 -5 4 -16 -8 -23 -26z"/>
<path d="M2483 5540 c-46 -24 -47 -39 -6 -61 47 -25 220 -4 230 27 6 18 -64
47 -122 51 -48 3 -69 0 -102 -17z"/>
<path d="M4532 5538 c-23 -12 -41 -26 -39 -31 6 -18 83 -38 150 -39 60 -2 70
1 93 23 l25 25 -44 22 c-58 29 -128 29 -185 0z"/>
<path d="M2313 5418 c-24 -12 -43 -27 -43 -34 0 -22 43 -44 85 -44 48 0 177
40 172 53 -2 6 -19 18 -37 29 -48 25 -124 23 -177 -4z"/>
<path d="M4711 5422 c-49 -24 -48 -37 4 -56 69 -27 159 -32 190 -12 36 23 31
39 -19 64 -53 27 -128 29 -175 4z"/>
<path d="M1899 5363 c-13 -35 -22 -83 -23 -120 -1 -52 3 -65 23 -87 13 -14 28
-23 33 -20 21 13 48 98 48 150 0 54 -30 134 -49 134 -5 0 -19 -26 -32 -57z"/>
<path d="M5244 5393 c-29 -45 -31 -148 -4 -211 12 -29 26 -52 29 -52 4 0 18
11 31 25 20 21 24 35 23 88 -1 61 -35 177 -53 177 -4 0 -16 -12 -26 -27z"/>
<path d="M2182 5296 c-48 -16 -82 -42 -82 -63 0 -17 41 -33 83 -33 63 0 177
46 177 70 0 28 -119 45 -178 26z"/>
<path d="M4893 5299 c-23 -6 -47 -16 -53 -24 -10 -13 -3 -19 43 -40 69 -32
146 -42 187 -25 16 7 30 17 30 22 0 20 -40 50 -85 64 -54 16 -62 16 -122 3z"/>
<path d="M1752 5228 c-18 -22 -32 -91 -32 -155 0 -52 4 -66 26 -92 14 -17 31
-31 38 -31 32 0 54 115 36 190 -14 60 -51 108 -68 88z"/>
<path d="M5418 5223 c-31 -36 -51 -111 -45 -164 7 -60 27 -109 44 -109 21 0
52 42 59 78 12 61 -14 212 -35 212 -5 0 -15 -8 -23 -17z"/>
<path d="M2047 5145 c-50 -19 -97 -53 -97 -70 0 -21 33 -35 78 -35 39 0 182
63 182 80 0 11 -77 40 -103 39 -12 0 -39 -7 -60 -14z"/>
<path d="M5028 5143 c-21 -9 -38 -18 -38 -22 0 -8 56 -41 105 -63 77 -33 175
-14 149 29 -15 24 -99 65 -143 69 -20 2 -53 -4 -73 -13z"/>
<path d="M1592 5023 c-4 -10 -7 -62 -7 -116 l0 -99 33 -29 c18 -16 37 -29 42
-29 15 0 40 69 39 109 0 44 -27 112 -59 151 -29 35 -38 37 -48 13z"/>
<path d="M5560 5011 c-32 -40 -59 -108 -59 -154 -1 -42 22 -107 38 -107 6 0
25 13 43 29 30 27 33 34 36 102 4 79 -7 150 -23 156 -6 2 -21 -10 -35 -26z"/>
<path d="M1925 4983 c-22 -6 -83 -49 -102 -73 -10 -12 -9 -18 8 -32 26 -22 58
-23 107 -3 56 24 132 75 132 90 0 21 -89 32 -145 18z"/>
<path d="M5155 4983 c-38 -10 -36 -21 9 -52 94 -65 163 -85 200 -58 46 33 -42
107 -133 113 -31 1 -65 0 -76 -3z"/>
<path d="M1467 4803 c-11 -10 -8 -134 4 -177 12 -45 53 -86 84 -86 33 0 42 70
20 147 -21 73 -84 140 -108 116z"/>
<path d="M1793 4790 c-23 -11 -54 -36 -70 -56 -27 -36 -27 -37 -8 -51 40 -30
129 2 205 74 29 28 32 35 20 43 -25 16 -102 11 -147 -10z"/>
<path d="M5260 4800 c-12 -8 -9 -15 20 -43 76 -72 165 -104 205 -74 19 14 19
15 -8 51 -16 20 -48 45 -72 56 -46 21 -120 26 -145 10z"/>
<path d="M5681 4784 c-50 -42 -77 -126 -65 -203 5 -31 11 -41 26 -41 37 0 68
31 84 85 17 60 16 176 -2 182 -6 2 -26 -8 -43 -23z"/>
<path d="M1694 4591 c-57 -33 -98 -96 -73 -112 37 -23 105 2 172 62 73 65 73
79 5 79 -40 0 -66 -7 -104 -29z"/>
<path d="M5349 4601 c30 -55 148 -131 202 -131 61 1 29 80 -49 123 -37 20 -64
27 -106 27 -52 0 -56 -1 -47 -19z"/>
<path d="M1363 4502 c7 -116 53 -192 114 -192 74 0 11 209 -76 255 -17 8 -33
15 -37 15 -4 0 -4 -35 -1 -78z"/>
<path d="M5805 4568 c-59 -32 -99 -93 -110 -170 -9 -60 0 -88 28 -88 54 0 97
63 115 167 10 58 7 103 -7 103 -3 0 -15 -6 -26 -12z"/>
<path d="M1661 4409 c-46 -18 -84 -53 -101 -93 -10 -22 -16 -44 -14 -48 3 -4
23 -8 44 -8 29 0 49 9 87 38 43 35 103 102 103 116 0 10 -93 6 -119 -5z"/>
<path d="M5420 4411 c0 -17 115 -130 144 -141 32 -12 83 -13 90 -2 2 4 -4 27
-14 49 -26 59 -85 96 -161 101 -39 3 -59 1 -59 -7z"/>
<path d="M1280 4298 c0 -34 27 -126 43 -151 35 -51 57 -67 97 -67 37 0 40 2
40 29 0 73 -59 173 -116 197 -48 20 -64 18 -64 -8z"/>
<path d="M5844 4301 c-55 -33 -104 -125 -104 -192 0 -27 3 -29 40 -29 41 0 63
14 95 64 18 27 45 118 45 154 0 28 -32 30 -76 3z"/>
<path d="M2202 4264 c-36 -29 -62 -81 -62 -126 0 -34 29 -95 59 -122 l22 -20
-29 -12 c-81 -34 -120 -170 -70 -244 54 -80 164 -76 238 8 22 25 40 52 40 60
0 12 6 10 24 -7 28 -26 40 -22 62 21 l16 32 14 -32 c23 -56 79 -31 110 51 10
26 19 21 39 -22 l18 -40 -32 -31 c-32 -33 -40 -67 -19 -88 35 -35 108 21 108
82 0 29 8 43 42 75 l42 39 16 -47 c12 -37 20 -47 40 -49 21 -2 29 4 48 40 l22
43 0 -37 c0 -33 -4 -39 -47 -63 -68 -39 -82 -53 -89 -92 -5 -25 -2 -39 11 -53
49 -54 125 10 162 135 11 35 31 67 70 108 31 32 53 61 49 64 -3 4 -28 -18 -55
-48 l-48 -54 5 78 5 77 -32 0 c-25 0 -31 -4 -31 -22 -1 -37 -44 -151 -59 -156
-12 -4 -13 11 -8 86 6 89 5 90 -18 95 -30 5 -35 1 -35 -32 0 -37 -62 -121 -90
-121 -13 0 -72 121 -66 136 7 19 46 18 46 -1 0 -8 5 -15 11 -15 16 0 7 31 -13
44 -11 7 -26 7 -45 0 -22 -7 -30 -19 -40 -57 -13 -55 -58 -137 -75 -137 -7 0
-9 26 -4 84 l7 84 -26 4 c-14 3 -25 1 -25 -4 0 -5 -9 -4 -20 2 -41 22 -90 -29
-90 -93 0 -82 -87 -187 -154 -187 -35 0 -76 39 -85 82 -21 91 35 184 118 195
43 6 57 23 19 23 -74 1 -125 138 -83 220 49 94 168 44 134 -57 -12 -37 -59
-68 -90 -60 -21 6 -26 -8 -6 -16 26 -10 68 6 92 35 36 42 35 110 -1 143 -37
35 -97 34 -142 -1z"/>
<path d="M3439 4270 c-51 -27 -99 -103 -99 -156 0 -39 17 -27 23 16 6 47 45
104 87 125 91 47 171 -26 157 -144 -10 -83 -60 -141 -121 -141 l-26 0 0 93 c0
100 12 166 30 177 9 6 9 9 0 15 -7 4 -22 -3 -36 -17 -30 -30 -40 -87 -52 -304
-10 -174 -23 -219 -66 -230 -50 -12 -85 32 -73 92 3 15 0 23 -7 21 -21 -7 -18
-71 4 -100 17 -22 30 -27 64 -27 77 0 121 58 131 176 9 95 9 96 39 83 28 -13
36 -29 67 -127 15 -47 32 -81 47 -93 27 -20 67 -25 77 -9 3 6 -3 10 -14 10
-25 0 -28 5 -52 96 -11 42 -27 87 -36 100 -15 23 -14 25 11 45 91 72 88 256
-5 304 -38 20 -107 18 -150 -5z"/>
<path d="M4898 4250 c-44 -26 -88 -158 -88 -266 0 -35 -7 -69 -20 -93 -23 -46
-78 -103 -91 -95 -14 8 -10 135 6 169 9 20 14 24 14 13 1 -24 21 -23 21 1 0
25 -33 36 -60 19 -11 -7 -30 -38 -41 -68 -11 -30 -33 -74 -47 -97 -31 -50 -58
-58 -48 -15 3 15 9 57 12 93 6 60 5 68 -14 78 -16 8 -25 7 -44 -8 l-24 -19 4
59 c4 58 4 59 -21 59 -44 0 -61 -58 -32 -113 12 -24 12 -32 -2 -65 -19 -46
-51 -92 -64 -92 -6 0 -7 32 -3 86 l7 86 -29 -3 c-16 -1 -37 1 -46 5 -27 12
-57 -12 -87 -72 -62 -121 -120 -138 -121 -34 0 13 6 22 15 22 8 0 22 12 31 26
16 23 16 26 1 42 -24 23 -65 6 -88 -37 -21 -40 -68 -91 -83 -91 -14 1 -66 103
-66 130 0 15 7 20 25 20 16 0 25 -6 25 -15 0 -8 5 -15 10 -15 14 0 13 23 -2
38 -18 18 -63 15 -80 -5 -9 -10 -18 -34 -22 -53 -7 -37 -50 -106 -77 -123 -29
-18 -49 -1 -49 43 0 29 4 40 15 40 19 0 40 43 32 64 -9 24 -51 19 -77 -9 -33
-35 -35 -115 -3 -146 41 -42 102 -19 144 55 l22 39 24 -47 24 -47 -31 -25
c-23 -20 -30 -34 -30 -60 0 -38 16 -50 54 -40 30 7 66 64 66 103 0 23 9 37 35
57 32 25 35 25 35 8 0 -34 34 -65 70 -65 26 0 41 8 66 37 l32 37 10 -30 c6
-16 19 -34 31 -40 16 -9 23 -7 40 15 12 15 21 34 22 43 0 9 7 -1 16 -21 22
-55 53 -52 91 10 16 26 32 57 36 68 3 10 20 27 37 36 l31 18 -7 -29 c-14 -63
-8 -133 13 -153 25 -25 51 -13 86 38 l24 36 16 -31 c18 -33 59 -50 85 -34 9 5
30 28 46 49 l31 40 14 -45 c22 -65 36 -62 44 9 8 66 39 150 56 150 6 0 10 -34
10 -88 0 -63 4 -94 16 -110 31 -45 67 -22 123 79 31 56 38 79 23 79 -4 0 -13
-15 -20 -33 -15 -42 -71 -127 -83 -127 -5 0 -9 40 -9 89 0 72 -4 93 -19 112
-17 21 -22 22 -45 11 -15 -7 -33 -27 -41 -45 -8 -17 -14 -25 -14 -17 -1 32 12
58 29 63 35 9 72 81 77 150 8 92 -17 127 -69 97z"/>
<path d="M1597 4189 c-42 -22 -99 -102 -95 -134 4 -27 49 -31 85 -8 35 22 97
88 123 131 l19 32 -47 0 c-27 -1 -63 -9 -85 -21z"/>
<path d="M5476 4202 c6 -4 14 -16 18 -27 8 -25 82 -105 119 -128 33 -21 81
-19 85 4 2 9 -10 38 -26 65 -36 62 -89 94 -157 94 -27 0 -45 -4 -39 -8z"/>
<path d="M1230 4049 c0 -32 52 -147 80 -176 34 -37 67 -48 106 -39 24 6 26 11
21 45 -6 48 -46 112 -91 146 -40 31 -116 46 -116 24z"/>
<path d="M5884 4044 c-83 -41 -159 -188 -108 -208 45 -17 89 1 126 53 26 37
68 134 68 159 0 17 -48 15 -86 -4z"/>
<path d="M1615 3998 c-60 -21 -125 -101 -125 -155 0 -29 3 -33 26 -33 37 0 87
33 116 77 28 43 68 112 68 119 0 8 -54 3 -85 -8z"/>
<path d="M5500 4006 c0 -7 40 -76 68 -119 29 -44 79 -77 116 -77 23 0 26 4 26
33 0 34 -36 94 -76 128 -31 26 -134 53 -134 35z"/>
<path d="M1633 3792 c-76 -31 -133 -106 -133 -177 0 -32 3 -35 29 -35 40 0
112 79 140 153 32 86 32 86 -36 59z"/>
<path d="M5510 3800 c0 -5 10 -35 21 -67 28 -74 100 -153 140 -153 26 0 29 3
29 35 0 72 -59 148 -138 179 -50 19 -52 19 -52 6z"/>
<path d="M1228 3794 c-16 -16 -7 -51 27 -102 39 -59 48 -70 87 -95 33 -21 57
-22 85 -2 19 13 20 19 11 53 -13 47 -48 94 -91 121 -36 22 -107 37 -119 25z"/>
<path d="M5897 3790 c-107 -33 -181 -178 -104 -204 47 -17 108 29 163 122 43
73 20 106 -59 82z"/>
<path d="M1639 3573 c-25 -14 -55 -40 -67 -57 -23 -33 -44 -120 -35 -143 10
-25 55 -14 88 21 33 35 85 149 85 186 0 26 -14 24 -71 -7z"/>
<path d="M5490 3580 c0 -37 53 -151 86 -186 25 -27 39 -35 61 -32 35 4 39 24
18 93 -18 57 -47 90 -108 124 -47 26 -57 26 -57 1z"/>
<path d="M1237 3528 c-15 -12 -13 -19 24 -75 64 -97 160 -141 203 -94 12 13
15 27 10 45 -7 31 -74 99 -116 121 -38 18 -98 20 -121 3z"/>
<path d="M5835 3522 c-43 -22 -94 -75 -106 -112 -9 -26 -8 -34 6 -50 43 -48
142 -3 205 93 37 57 39 63 23 75 -23 16 -91 14 -128 -6z"/>
<path d="M1715 3383 c-70 -36 -125 -121 -125 -190 0 -72 26 -77 88 -19 32 30
61 103 76 194 6 36 3 38 -39 15z"/>
<path d="M5452 3343 c5 -32 16 -71 24 -87 7 -16 14 -34 14 -41 0 -16 61 -71
86 -79 17 -5 23 -1 28 16 15 58 -7 131 -58 186 -17 20 -85 62 -99 62 -2 0 0
-26 5 -57z"/>
<path d="M1293 3270 c-13 -5 -23 -14 -23 -20 0 -19 104 -122 137 -136 48 -21
88 -17 119 10 28 23 28 24 10 50 -46 71 -104 106 -171 105 -27 0 -60 -4 -72
-9z"/>
<path d="M5753 3260 c-38 -23 -65 -49 -89 -86 -18 -26 -18 -27 10 -50 31 -27
71 -31 119 -10 33 14 137 117 137 136 0 33 -128 41 -177 10z"/>
<path d="M1790 3193 c-22 -8 -76 -67 -95 -103 -19 -36 -22 -137 -6 -153 7 -7
20 -8 38 -1 42 14 82 102 90 192 6 71 4 76 -27 65z"/>
<path d="M5380 3156 c0 -100 48 -210 97 -222 35 -9 43 3 43 70 0 51 -5 70 -28
107 -33 51 -58 74 -89 83 -22 7 -23 4 -23 -38z"/>
<path d="M1395 3025 c-16 -9 -34 -20 -39 -25 -21 -21 78 -104 151 -126 36 -11
48 -11 75 1 74 31 69 73 -15 127 -59 38 -127 47 -172 23z"/>
<path d="M5690 3033 c-32 -12 -106 -63 -118 -83 -16 -27 1 -57 46 -75 27 -12
39 -12 76 -1 67 20 162 95 153 120 -12 32 -110 56 -157 39z"/>
<path d="M1850 2980 c-58 -60 -80 -135 -61 -208 14 -49 35 -55 69 -19 33 35
52 102 52 183 0 86 -11 94 -60 44z"/>
<path d="M5289 2983 c-5 -104 15 -189 53 -230 33 -36 55 -30 68 18 21 75 -16
184 -74 223 -35 23 -46 20 -47 -11z"/>
<path d="M1973 2816 c-45 -45 -66 -93 -67 -156 -1 -55 18 -120 35 -120 20 0
67 58 78 95 17 60 11 217 -8 214 -3 -1 -20 -15 -38 -33z"/>
<path d="M5176 2819 c-9 -49 -7 -136 5 -185 15 -57 64 -103 87 -81 34 35 33
144 -2 212 -12 23 -70 85 -80 85 -2 0 -6 -14 -10 -31z"/>
<path d="M1519 2802 c-8 -4 -29 -18 -45 -30 l-29 -24 30 -24 c17 -14 35 -28
41 -33 23 -19 71 -40 106 -46 70 -13 146 47 117 94 -25 39 -79 65 -143 68 -33
1 -68 -1 -77 -5z"/>
<path d="M5535 2796 c-93 -46 -105 -105 -30 -140 41 -20 81 -16 136 11 35 18
37 18 82 55 l28 23 -30 29 c-24 23 -40 29 -93 32 -43 3 -73 0 -93 -10z"/>
<path d="M5041 2640 c-14 -66 -14 -149 1 -191 11 -31 52 -79 68 -79 11 0 50
100 50 129 0 38 -31 111 -65 154 -16 20 -33 37 -37 37 -3 0 -11 -23 -17 -50z"/>
<path d="M2098 2648 c-37 -50 -58 -102 -58 -143 0 -43 38 -137 53 -132 6 2 25
20 41 41 29 36 31 43 31 124 0 143 -19 174 -67 110z"/>
<path d="M1672 2590 c-31 -13 -92 -63 -92 -76 0 -22 112 -68 176 -72 56 -4 64
-2 93 24 50 46 46 71 -18 105 -56 30 -113 37 -159 19z"/>
<path d="M5395 2588 c-16 -6 -32 -14 -35 -18 -3 -4 -15 -12 -28 -19 -29 -16
-22 -45 20 -85 28 -26 36 -28 92 -24 64 4 176 50 176 72 0 14 -62 63 -95 76
-33 13 -91 12 -130 -2z"/>
<path d="M2252 2515 c-12 -13 -24 -36 -28 -50 -3 -14 -10 -28 -15 -31 -15 -9
-10 -119 7 -155 27 -54 34 -60 55 -48 38 20 52 66 46 158 -5 83 -21 151 -36
151 -4 0 -17 -11 -29 -25z"/>
<path d="M4891 2478 c-24 -114 -25 -152 -2 -196 12 -23 30 -46 40 -52 17 -8
23 -4 43 28 19 30 23 51 23 108 -1 62 -5 79 -31 120 -43 70 -57 68 -73 -8z"/>
<path d="M1834 2401 c-34 -15 -95 -81 -92 -99 5 -28 94 -54 171 -50 75 4 101
21 116 75 9 30 7 33 -27 54 -41 24 -134 35 -168 20z"/>
<path d="M2424 2402 c-25 -16 -54 -102 -54 -157 0 -61 29 -139 55 -149 20 -7
53 26 61 61 3 16 7 33 9 40 10 33 -35 213 -54 213 -3 0 -11 -4 -17 -8z"/>
<path d="M4737 2377 c-42 -99 -41 -228 2 -270 l21 -21 25 24 c14 13 25 31 25
41 0 10 5 21 10 24 15 10 12 118 -5 159 -16 38 -44 76 -57 76 -4 0 -14 -15
-21 -33z"/>
<path d="M5245 2402 c-11 -4 -35 -15 -53 -25 -27 -15 -32 -22 -26 -40 19 -65
53 -87 138 -87 53 0 141 24 152 41 10 17 -7 46 -47 78 -31 25 -52 33 -92 36
-29 2 -61 1 -72 -3z"/>
<path d="M2582 2275 c-31 -49 -44 -125 -31 -183 5 -26 13 -49 17 -52 4 -3 12
-14 18 -24 20 -37 42 -43 66 -18 20 20 23 33 23 100 0 65 -6 90 -30 145 -17
37 -32 67 -35 67 -3 0 -15 -16 -28 -35z"/>
<path d="M4566 2264 c-50 -90 -58 -215 -16 -266 24 -30 45 -18 78 43 41 74 31
172 -23 252 -12 16 -15 14 -39 -29z"/>
<path d="M2026 2230 c-50 -16 -127 -105 -112 -129 8 -13 90 -31 141 -31 86 0
143 41 148 106 2 22 -4 31 -25 42 -36 17 -116 24 -152 12z"/>
<path d="M5050 2228 c-55 -15 -63 -28 -51 -76 14 -51 47 -73 121 -79 58 -6
155 11 166 28 7 12 -28 68 -60 96 -26 22 -86 44 -121 42 -11 0 -36 -5 -55 -11z"/>
<path d="M2755 2164 c-27 -71 -30 -127 -10 -182 18 -49 69 -104 90 -96 16 6
45 69 45 98 0 53 -73 226 -96 226 -6 0 -19 -21 -29 -46z"/>
<path d="M4367 2138 c-46 -93 -56 -169 -29 -217 10 -19 23 -36 28 -38 19 -6
70 52 87 97 21 57 21 93 1 156 -17 51 -31 74 -44 74 -4 0 -24 -33 -43 -72z"/>
<path d="M2223 2079 c-53 -15 -142 -133 -118 -157 3 -3 42 -8 88 -10 60 -3 92
0 119 11 44 18 78 68 78 114 0 29 -4 33 -37 42 -45 13 -86 13 -130 0z"/>
<path d="M4843 2079 c-30 -9 -33 -13 -33 -51 0 -56 47 -103 115 -113 45 -7
162 -2 171 8 2 2 -4 24 -15 48 -42 98 -132 139 -238 108z"/>
<path d="M2440 1953 c-36 -14 -94 -70 -111 -107 -33 -72 -30 -76 61 -76 121 0
183 37 196 116 8 56 -11 74 -79 73 -29 0 -59 -3 -67 -6z"/>
<path d="M4628 1950 c-25 -15 -23 -70 5 -110 35 -53 79 -70 174 -70 73 0 83 2
83 18 -1 32 -45 105 -83 136 -31 25 -48 31 -100 33 -34 2 -70 -1 -79 -7z"/>
<path d="M2670 1845 c-76 -24 -123 -81 -136 -165 l-7 -43 70 5 c84 6 149 36
181 82 22 32 29 89 14 113 -12 19 -74 23 -122 8z"/>
<path d="M2950 1843 c-35 -23 -40 -33 -40 -74 0 -72 77 -104 125 -53 36 38 33
80 -7 116 -37 33 -45 34 -78 11z"/>
<path d="M3551 1845 c-99 -44 -132 -168 -65 -248 36 -43 61 -56 111 -57 69 0
98 20 140 99 36 67 -10 171 -91 205 -46 19 -52 19 -95 1z"/>
<path d="M4180 1843 c-35 -23 -40 -33 -40 -74 0 -70 73 -103 124 -55 38 34 36
86 -5 120 -36 31 -46 32 -79 9z"/>
<path d="M4435 1853 c-27 -7 -35 -21 -35 -65 0 -25 8 -46 25 -67 45 -52 88
-72 171 -78 l77 -6 -6 37 c-8 47 -41 113 -70 137 -21 18 -110 50 -131 48 -6
-1 -20 -4 -31 -6z"/>
<path d="M3207 1790 c-51 -40 -46 -117 9 -151 64 -39 134 3 134 83 0 75 -83
115 -143 68z"/>
<path d="M3875 1785 c-37 -36 -35 -97 4 -136 16 -16 40 -29 52 -29 32 0 87 40
94 69 23 91 -86 161 -150 96z"/>
</g>
</svg>
